<svg height="484pt" viewBox="0 -110 484.0223 484" width="484pt" xmlns="http://www.w3.org/2000/svg"><path d="m203 88.886719c0-15.464844-12.535156-28-28-28h-147c-15.464844 0-28 12.535156-28 28v147c0 15.460937 12.535156 28 28 28h147c15.464844 0 28-12.539063 28-28zm-16 147c0 6.625-5.371094 12-12 12h-147c-6.628906 0-12-5.375-12-12v-147c0-6.628907 5.371094-12 12-12h147c6.628906 0 12 5.371093 12 12zm0 0"/><path d="m101.632812 189.199219c14.957032 0 27.085938-12.125 27.085938-27.085938 0-14.960937-12.128906-27.085937-27.085938-27.085937-14.960937 0-27.085937 12.125-27.085937 27.085937.015625 14.953125 12.132813 27.070313 27.085937 27.085938zm0-38.171875c6.121094 0 11.085938 4.964844 11.085938 11.085937 0 6.125-4.964844 11.085938-11.089844 11.085938-6.121094 0-11.085937-4.964844-11.082031-11.085938.007813-6.117187 4.964844-11.078125 11.085937-11.085937zm0 0"/><path d="m50.734375 138.304688c14.960937 0 27.085937-12.128907 27.085937-27.085938 0-14.960938-12.125-27.085938-27.085937-27.085938-14.957031 0-27.085937 12.125-27.085937 27.085938.019531 14.953125 12.136718 27.070312 27.085937 27.085938zm0-38.171876c6.125 0 11.085937 4.964844 11.085937 11.085938 0 6.125-4.960937 11.085938-11.085937 11.085938-6.121094 0-11.085937-4.964844-11.085937-11.085938.011718-6.121094 4.96875-11.078125 11.085937-11.085938zm0 0"/><path d="m152.527344 240.09375c14.957031 0 27.082031-12.128906 27.082031-27.085938 0-14.957031-12.125-27.085937-27.085937-27.085937-14.957032 0-27.082032 12.128906-27.082032 27.085937.015625 14.953126 12.132813 27.070313 27.085938 27.085938zm0-38.171875c6.121094.003906 11.082031 4.964844 11.082031 11.085937 0 6.125-4.960937 11.085938-11.085937 11.085938-6.121094 0-11.082032-4.964844-11.082032-11.085938.007813-6.117187 4.964844-11.078124 11.085938-11.085937zm0 0"/><path d="m408.40625 14.308594c-7.574219-13.476563-24.625-18.277344-38.117188-10.730469l-128.503906 72.042969c-13.472656 7.574218-18.273437 24.625-10.730468 38.117187l72.042968 128.5c3.617188 6.492188 9.679688 11.265625 16.835938 13.257813 2.484375.703125 5.050781 1.058594 7.628906 1.0625 4.785156-.003906 9.484375-1.242188 13.652344-3.589844l128.5-72.046875c13.488281-7.5625 18.292968-24.625 10.730468-38.113281zm59.171875 145.449218c-.855469 3.066407-2.902344 5.664063-5.683594 7.214844l-128.5 72.042969c-5.78125 3.242187-13.09375 1.179687-16.335937-4.601563l-72.042969-128.5c-3.234375-5.78125-1.175781-13.089843 4.597656-16.335937l128.5-72.042969c5.785157-3.234375 13.09375-1.175781 16.335938 4.601563l72.046875 128.5c1.5625 2.773437 1.953125 6.054687 1.082031 9.121093zm0 0"/><path d="m310.101562 95.523438c-6.320312-11.273438-19.722656-16.511719-32.011718-12.511719-12.289063 4-20.039063 16.121093-18.515625 28.953125 1.523437 12.832031 11.902343 22.800781 24.785156 23.808594 12.882813 1.007812 24.683594-7.226563 28.1875-19.664063 1.96875-6.914063 1.085937-14.328125-2.445313-20.585937zm-18.203124 22.914062c-5.339844 2.996094-12.09375 1.09375-15.089844-4.246094-2.992188-5.339844-1.089844-12.097656 4.25-15.089844 5.339844-2.996093 12.09375-1.09375 15.089844 4.246094 2.984374 5.34375 1.078124 12.09375-4.257813 15.089844zm0 0"/><path d="m448.660156 134.535156c-7.316406-13.042968-23.816406-17.683594-36.859375-10.371094s-17.6875 23.816407-10.375 36.859376c7.3125 13.042968 23.808594 17.691406 36.855469 10.382812 6.304688-3.476562 10.949219-9.335938 12.902344-16.265625 1.949218-6.929687 1.042968-14.351563-2.523438-20.605469zm-18.199218 22.914063c-5.339844 2.992187-12.09375 1.089843-15.089844-4.25-2.992188-5.339844-1.089844-12.09375 4.25-15.085938 5.339844-2.996093 12.09375-1.09375 15.089844 4.246094 2.984374 5.339844 1.082031 12.089844-4.253907 15.089844zm0 0"/><path d="m398.882812 45.746094c-5.996093-10.691406-18.421874-16.027344-30.304687-13.003906-11.878906 3.023437-20.246094 13.648437-20.402344 25.90625-.152343 12.257812 7.941407 23.09375 19.742188 26.414062 2.402343.679688 4.886719 1.023438 7.382812 1.023438 9.605469-.027344 18.480469-5.132813 23.332031-13.425782 4.847657-8.292968 4.945313-18.535156.253907-26.917968zm-18.203124 22.914062c-5.339844 2.992188-12.097657 1.089844-15.089844-4.25-2.992188-5.339844-1.089844-12.09375 4.25-15.085937 5.339844-2.996094 12.09375-1.09375 15.085937 4.246093 2.984375 5.339844 1.085938 12.089844-4.246093 15.089844zm0 0"/><path d="m323 173.929688c-9.558594 5.359374-14.945312 15.945312-13.65625 26.824218 1.292969 10.878906 9.011719 19.90625 19.554688 22.878906 2.402343.675782 4.886718 1.023438 7.382812 1.023438 11.339844-.015625 21.472656-7.09375 25.386719-17.738281 3.914062-10.644531.78125-22.601563-7.84375-29.960938-8.628907-7.363281-20.929688-8.570312-30.824219-3.027343zm18.664062 33.300781c-5.339843 2.992187-12.09375 1.089843-15.085937-4.25-2.996094-5.339844-1.09375-12.09375 4.246094-15.089844 5.339843-2.992187 12.097656-1.089844 15.089843 4.25 1.453126 2.558594 1.824219 5.59375 1.027344 8.429687-.800781 2.832032-2.699218 5.230469-5.273437 6.65625zm0 0"/></svg>