<?xml version="1.0" encoding="iso-8859-1"?>
<!-- Generator: Adobe Illustrator 18.0.0, SVG Export Plug-In . SVG Version: 6.00 Build 0)  -->
<!DOCTYPE svg PUBLIC "-//W3C//DTD SVG 1.1//EN" "http://www.w3.org/Graphics/SVG/1.1/DTD/svg11.dtd">
<svg version="1.1" id="Capa_1" xmlns="http://www.w3.org/2000/svg" xmlns:xlink="http://www.w3.org/1999/xlink" x="0px" y="0px"
	 viewBox="0 0 407.5 407.5" style="enable-background:new 0 0 407.5 407.5;" xml:space="preserve">
<g>
	<g>
		<path style="fill:#AF91E8;" d="M161.25,123v207.5c0,18.2-14.8,33-33,33s-33-14.8-33-33V296c0-5.8,4.7-10.5,10.5-10.5
			s10.5,4.7,10.5,10.5v34.5c0,6.62,5.38,12,12,12s12-5.38,12-12V123c0-5.8,4.7-10.5,10.5-10.5S161.25,117.2,161.25,123z"/>
		<path style="fill:#AF91E8;" d="M312.25,296v34.5c0,18.2-14.8,33-33,33s-33-14.8-33-33V123c0-5.8,4.7-10.5,10.5-10.5
			s10.5,4.7,10.5,10.5v207.5c0,6.62,5.38,12,12,12s12-5.38,12-12V296c0-5.8,4.7-10.5,10.5-10.5S312.25,290.2,312.25,296z"/>
		<path style="fill:#AF91E8;" d="M196.58,167v230c0,5.8-4.7,10.5-10.5,10.5c-5.8,0-10.5-4.7-10.5-10.5V167c0-5.8,4.7-10.5,10.5-10.5
			C191.88,156.5,196.58,161.2,196.58,167z"/>
		<path style="fill:#AF91E8;" d="M231.92,167v230c0,5.8-4.7,10.5-10.5,10.5c-5.8,0-10.5-4.7-10.5-10.5V167c0-5.8,4.7-10.5,10.5-10.5
			C227.22,156.5,231.92,161.2,231.92,167z"/>
	</g>
	<path style="fill:#8369C4;" d="M96.492,181.102c0,6.719,8.4,9.808,12.719,4.661c3.599-4.288,6.935-8.892,14.1-8.892
		c13.409,0,13.409,16.129,26.818,16.129c13.407,0,13.407-16.129,26.815-16.129c13.408,0,13.408,16.129,26.816,16.129
		c13.407,0,13.407-16.129,26.814-16.129c13.407,0,13.407,16.129,26.814,16.129c13.405,0,13.405-16.129,26.811-16.129
		c7.159,0,10.494,4.6,14.09,8.887c4.318,5.148,12.72,2.059,12.72-4.661V143H96.492V181.102z"/>
	<path style="fill:#C4A4F7;" d="M339.905,151c8.309,0,14.906-7.145,14.068-15.411C346.253,59.433,281.942,0,203.75,0
		S61.247,59.433,53.527,135.589C52.689,143.855,59.286,151,67.595,151H339.905z"/>
	<path style="fill:#C8AFF9;" d="M67.46,137c7.035-68.99,65.474-123,136.29-123s129.255,54.01,136.29,123H67.46z"/>
	<circle style="fill:#8369C4;" cx="136.25" cy="91.5" r="16.5"/>
	<circle style="fill:#8369C4;" cx="270.25" cy="106.5" r="20.5"/>
	<circle style="fill:#8369C4;" cx="213.334" cy="57.083" r="14.084"/>
	<circle style="fill:#8369C4;" cx="186.208" cy="97.458" r="8.542"/>
	<circle style="fill:#8369C4;" cx="269.75" cy="66" r="8.542"/>
	<rect x="96.492" y="151" style="fill:#6B58A8;" width="214.516" height="9.667"/>
</g>
<g>
</g>
<g>
</g>
<g>
</g>
<g>
</g>
<g>
</g>
<g>
</g>
<g>
</g>
<g>
</g>
<g>
</g>
<g>
</g>
<g>
</g>
<g>
</g>
<g>
</g>
<g>
</g>
<g>
</g>
</svg>
